<svg xmlns="http://www.w3.org/2000/svg" xmlns:xlink="http://www.w3.org/1999/xlink" width="500" zoomAndPan="magnify" viewBox="0 0 375 374.999991" height="500" preserveAspectRatio="xMidYMid meet" version="1.0"><defs><g/><clipPath id="cb638083de"><path d="M 127.617188 106.527344 L 227 106.527344 L 227 200.277344 L 127.617188 200.277344 Z M 127.617188 106.527344 " clip-rule="nonzero"/></clipPath><clipPath id="2c53006c7c"><path d="M 223 151 L 247.617188 151 L 247.617188 189 L 223 189 Z M 223 151 " clip-rule="nonzero"/></clipPath></defs><g clip-path="url(#cb638083de)"><path fill="#364e89" d="M 199.160156 106.527344 C 185.800781 106.527344 174.714844 116.21875 172.585938 128.933594 L 169.285156 129.5625 C 165.398438 123.019531 158.25 118.628906 150.066406 118.628906 C 137.738281 118.628906 127.75 128.585938 127.75 140.875 C 127.75 151.324219 134.976562 160.085938 144.71875 162.476562 L 144.71875 164.960938 L 140.195312 164.960938 L 140.175781 164.757812 L 134.824219 162.777344 L 131.074219 162.777344 L 136.996094 175.0625 L 139.183594 174.476562 L 140.398438 172.496094 L 144.71875 172.496094 L 144.71875 200.277344 L 222.285156 200.277344 L 222.285156 154.089844 L 216.328125 154.089844 C 222.304688 149.164062 226.117188 141.714844 226.117188 133.378906 C 226.117188 118.542969 214.042969 106.527344 199.160156 106.527344 Z M 175.75 146.675781 C 177.371094 149.507812 179.488281 152.023438 181.992188 154.089844 L 168.027344 154.089844 C 169.488281 152.117188 170.625 149.898438 171.371094 147.503906 Z M 214.503906 190.945312 C 215.847656 190.945312 216.9375 192.03125 216.9375 193.367188 C 216.9375 194.707031 215.847656 195.792969 214.503906 195.792969 C 213.160156 195.792969 212.074219 194.707031 212.074219 193.367188 C 212.074219 192.03125 213.160156 190.945312 214.503906 190.945312 Z M 214.503906 190.945312 " fill-opacity="1" fill-rule="nonzero"/></g><path fill="#ffd6e2" d="M 198.773438 119.179688 C 191.25 119.179688 185.152344 125.261719 185.152344 132.757812 C 185.152344 140.257812 191.25 146.335938 198.773438 146.335938 C 206.296875 146.335938 212.394531 140.257812 212.394531 132.757812 C 212.394531 125.261719 206.296875 119.179688 198.773438 119.179688 Z M 197.472656 123.1875 C 198.691406 123.1875 199.683594 124.164062 199.683594 125.378906 C 199.683594 126.597656 198.691406 127.585938 197.472656 127.585938 C 196.253906 127.585938 195.261719 126.597656 195.261719 125.378906 C 195.261719 124.164062 196.253906 123.1875 197.472656 123.1875 Z M 204.292969 127.3125 C 205.511719 127.3125 206.503906 128.300781 206.503906 129.519531 C 206.503906 130.734375 205.511719 131.722656 204.292969 131.722656 C 203.074219 131.722656 202.082031 130.734375 202.082031 129.519531 C 202.082031 128.300781 203.074219 127.3125 204.292969 127.3125 Z M 192.257812 129.046875 C 193.476562 129.046875 194.457031 130.035156 194.457031 131.25 C 194.457031 132.464844 193.476562 133.453125 192.257812 133.453125 C 191.039062 133.453125 190.046875 132.464844 190.046875 131.25 C 190.046875 130.035156 191.039062 129.046875 192.257812 129.046875 Z M 203.488281 135.058594 C 204.710938 135.058594 205.703125 136.035156 205.703125 137.25 C 205.703125 138.464844 204.710938 139.453125 203.488281 139.453125 C 202.269531 139.453125 201.277344 138.464844 201.277344 137.25 C 201.277344 136.035156 202.269531 135.058594 203.488281 135.058594 Z M 195.332031 136.390625 C 196.550781 136.390625 197.542969 137.367188 197.542969 138.582031 C 197.542969 139.796875 196.550781 140.785156 195.332031 140.785156 C 194.113281 140.785156 193.121094 139.796875 193.121094 138.582031 C 193.121094 137.367188 194.113281 136.390625 195.332031 136.390625 Z M 195.332031 136.390625 " fill-opacity="1" fill-rule="nonzero"/><path fill="#ffd6e2" d="M 150.125 128.878906 C 144.035156 128.878906 139.097656 133.800781 139.097656 139.871094 C 139.097656 145.941406 144.035156 150.863281 150.125 150.863281 C 156.214844 150.863281 161.152344 145.941406 161.152344 139.871094 C 161.152344 133.800781 156.214844 128.878906 150.125 128.878906 Z M 149.070312 132.125 C 150.058594 132.125 150.863281 132.914062 150.863281 133.898438 C 150.863281 134.882812 150.058594 135.683594 149.070312 135.683594 C 148.085938 135.683594 147.28125 134.882812 147.28125 133.898438 C 147.28125 132.914062 148.085938 132.125 149.070312 132.125 Z M 154.59375 135.460938 C 155.582031 135.460938 156.386719 136.261719 156.386719 137.246094 C 156.386719 138.230469 155.582031 139.03125 154.59375 139.03125 C 153.609375 139.03125 152.804688 138.230469 152.804688 137.246094 C 152.804688 136.261719 153.609375 135.460938 154.59375 135.460938 Z M 144.851562 136.867188 C 145.835938 136.867188 146.632812 137.664062 146.632812 138.648438 C 146.632812 139.632812 145.835938 140.433594 144.851562 140.433594 C 143.863281 140.433594 143.0625 139.632812 143.0625 138.648438 C 143.0625 137.664062 143.863281 136.867188 144.851562 136.867188 Z M 153.945312 141.730469 C 154.929688 141.730469 155.734375 142.523438 155.734375 143.507812 C 155.734375 144.488281 154.929688 145.289062 153.945312 145.289062 C 152.957031 145.289062 152.152344 144.488281 152.152344 143.507812 C 152.152344 142.523438 152.957031 141.730469 153.945312 141.730469 Z M 147.339844 142.808594 C 148.328125 142.808594 149.128906 143.601562 149.128906 144.585938 C 149.128906 145.566406 148.328125 146.367188 147.339844 146.367188 C 146.351562 146.367188 145.550781 145.566406 145.550781 144.585938 C 145.550781 143.601562 146.351562 142.808594 147.339844 142.808594 Z M 147.339844 142.808594 " fill-opacity="1" fill-rule="nonzero"/><g clip-path="url(#2c53006c7c)"><path fill="#364e89" d="M 247.476562 151.242188 L 233.796875 159.507812 L 223.09375 159.507812 L 223.09375 180.097656 L 233.796875 180.097656 L 247.476562 188.359375 Z M 247.476562 151.242188 " fill-opacity="1" fill-rule="nonzero"/></g><g fill="#c5314a" fill-opacity="1"><g transform="translate(85.538502, 240.213647)"><g><path d="M 12.882812 0.449219 C 19.265625 0.449219 22.863281 -5.511719 22.863281 -9.378906 C 22.863281 -10.757812 22.472656 -10.996094 22.113281 -10.996094 C 20.644531 -10.996094 20.496094 -6.5625 15.25 -6.5625 C 8.089844 -6.5625 4.195312 -15.910156 4.195312 -22.082031 C 4.195312 -23.191406 4.644531 -25.707031 6.652344 -25.707031 C 10.097656 -25.707031 12.015625 -22.890625 16.121094 -22.230469 C 16.660156 -22.140625 16.957031 -21.933594 16.957031 -21.511719 C 16.957031 -20.285156 10.757812 -19.054688 10.757812 -14.5625 C 10.757812 -12.164062 12.792969 -10.246094 15.222656 -10.246094 C 17.738281 -10.246094 19.984375 -12.316406 19.984375 -14.5625 C 19.984375 -15.160156 19.804688 -16.210938 19.324219 -16.210938 C 18.996094 -16.210938 19.054688 -15.910156 18.425781 -15.910156 C 17.378906 -15.910156 16.6875 -16.777344 16.6875 -17.769531 C 16.660156 -19.953125 19.414062 -22.113281 20.703125 -23.789062 C 21.304688 -24.570312 21.753906 -25.4375 22.023438 -26.066406 C 22.863281 -28.015625 23.28125 -30.410156 22.113281 -30.410156 C 21.183594 -30.410156 20.585938 -29.214844 18.515625 -29.214844 C 15.789062 -29.214844 13.960938 -30.410156 11.625 -30.410156 C 4.253906 -30.410156 0.75 -22.410156 0.75 -14.980469 C 0.75 -4.644531 6.171875 0.449219 12.882812 0.449219 Z M 12.882812 0.449219 "/></g></g></g><g fill="#c5314a" fill-opacity="1"><g transform="translate(108.991793, 240.213647)"><g><path d="M 0.148438 -26.335938 C 1.589844 -25.949219 1.4375 -24.390625 1.4375 -24.03125 L 1.4375 -3.535156 C 1.4375 -1.828125 1.199219 -0.808594 0.390625 0 L 10.425781 0 C 9.617188 -0.808594 9.378906 -1.828125 9.378906 -3.535156 L 9.378906 -11.683594 C 9.378906 -15.011719 10.636719 -15.941406 12.015625 -15.941406 C 13.332031 -15.941406 13.722656 -14.652344 13.722656 -13.273438 L 13.722656 -3.535156 C 13.722656 -1.828125 13.484375 -0.808594 12.675781 0 L 22.710938 0 C 21.902344 -0.808594 21.664062 -1.828125 21.664062 -3.535156 L 21.664062 -8.660156 L 21.632812 -14.382812 C 21.632812 -17.5 20.882812 -21.421875 16.507812 -21.421875 C 11.445312 -21.421875 10.816406 -17.257812 9.589844 -17.257812 C 9.558594 -17.257812 9.46875 -17.257812 9.378906 -17.257812 L 9.378906 -29.242188 C 9.378906 -29.84375 9.347656 -30.410156 8.480469 -30.410156 C 6.710938 -30.410156 1.199219 -27.714844 0.03125 -27.144531 C -0.03125 -27.117188 -0.300781 -27.054688 -0.300781 -26.757812 C -0.300781 -26.398438 0.0585938 -26.367188 0.148438 -26.335938 Z M 0.148438 -26.335938 "/></g></g></g><g fill="#c5314a" fill-opacity="1"><g transform="translate(132.295315, 240.213647)"><g><path d="M 0.75 -4.675781 C 0.75 -1.796875 3.175781 0.449219 6.082031 0.449219 C 10.367188 0.449219 11.234375 -2.335938 12.496094 -2.335938 C 12.945312 -2.335938 13.183594 -1.796875 13.273438 -1.289062 C 13.421875 -0.480469 13.933594 0 14.832031 0 L 22.171875 0 C 21.363281 -0.808594 21.125 -1.828125 21.125 -3.535156 L 21.125 -12.433594 C 21.125 -16.71875 17.886719 -21.421875 10.996094 -21.421875 C 7.820312 -21.421875 4.675781 -20.972656 2.636719 -19.027344 C 1.859375 -18.308594 2.039062 -17.226562 2.039062 -16.210938 L 2.039062 -14.5625 C 2.039062 -14.050781 2.488281 -13.601562 2.964844 -13.601562 C 4.824219 -13.601562 6.773438 -19.714844 10.546875 -19.773438 C 12.765625 -19.804688 13.152344 -18.066406 13.152344 -16.75 C 13.152344 -16.210938 12.945312 -15.609375 12.074219 -15.429688 C 6.441406 -14.261719 0.75 -11.054688 0.75 -4.675781 Z M 12.074219 -13.484375 C 12.882812 -13.484375 13.152344 -12.972656 13.152344 -11.625 C 13.152344 -9.769531 13.183594 -8.660156 13.183594 -6.773438 C 13.183594 -4.824219 12.375 -3.355469 10.757812 -3.355469 C 8.539062 -3.355469 7.910156 -5.394531 7.910156 -7.492188 C 7.910156 -11.175781 10.128906 -13.484375 12.074219 -13.484375 Z M 12.074219 -13.484375 "/></g></g></g><g fill="#c5314a" fill-opacity="1"><g transform="translate(154.610389, 240.213647)"><g><path d="M 0 -17.769531 C 0 -17.410156 0.359375 -17.378906 0.449219 -17.347656 C 1.589844 -16.957031 1.4375 -15.402344 1.4375 -15.042969 L 1.4375 -3.535156 C 1.4375 -1.828125 1.199219 -0.808594 0.390625 0 L 10.425781 0 C 9.617188 -0.808594 9.378906 -1.828125 9.378906 -3.535156 L 9.378906 -20.253906 C 9.378906 -20.855469 9.347656 -21.421875 8.480469 -21.421875 C 6.710938 -21.421875 1.5 -18.726562 0.328125 -18.15625 C 0.269531 -18.128906 0 -18.066406 0 -17.769531 Z M 5.332031 -31.730469 C 2.695312 -31.730469 0.957031 -29.992188 0.957031 -27.355469 C 0.957031 -24.71875 2.695312 -22.980469 5.332031 -22.980469 C 7.96875 -22.980469 9.707031 -24.71875 9.707031 -27.355469 C 9.707031 -29.992188 7.96875 -31.730469 5.332031 -31.730469 Z M 5.332031 -31.730469 "/></g></g></g><g fill="#c5314a" fill-opacity="1"><g transform="translate(165.183836, 240.213647)"><g><path d="M 10.335938 0 C 9.527344 -0.808594 9.289062 -1.828125 9.289062 -3.535156 L 9.289062 -11.683594 C 9.289062 -15.011719 10.546875 -15.941406 11.925781 -15.941406 C 13.242188 -15.941406 13.632812 -14.652344 13.632812 -13.273438 L 13.632812 -3.535156 C 13.632812 -1.828125 13.394531 -0.808594 12.585938 0 L 22.621094 0 C 21.8125 -0.808594 21.574219 -1.828125 21.574219 -3.535156 L 21.574219 -8.660156 L 21.542969 -14.382812 C 21.542969 -17.5 20.792969 -21.421875 16.417969 -21.421875 C 11.355469 -21.421875 10.726562 -17.257812 9.5 -17.257812 C 9.378906 -17.257812 9.289062 -17.257812 9.289062 -17.976562 L 9.289062 -18.488281 C 9.289062 -20.015625 8.929688 -20.972656 7.640625 -20.972656 L 0.300781 -20.972656 C 1.109375 -20.164062 1.347656 -19.144531 1.347656 -17.4375 L 1.347656 -3.535156 C 1.347656 -1.828125 1.109375 -0.808594 0.300781 0 Z M 10.335938 0 "/></g></g></g><g fill="#c5314a" fill-opacity="1"><g transform="translate(187.948204, 240.213647)"><g><path d="M 9.558594 0.449219 C 17.917969 0.449219 21.421875 -5.601562 21.421875 -10.9375 C 21.421875 -15.550781 18.007812 -18.875 12.972656 -19.355469 C 8.449219 -19.773438 2.785156 -20.375 2.785156 -23.609375 C 2.785156 -24.75 3.683594 -25.707031 4.792969 -25.707031 C 8.808594 -25.707031 11.566406 -22.113281 15.96875 -22.113281 C 19.625 -22.113281 22.351562 -30.410156 20.253906 -30.410156 C 19.324219 -30.410156 18.726562 -29.214844 16.660156 -29.214844 C 13.933594 -29.214844 12.105469 -30.410156 9.769531 -30.410156 C 4.734375 -30.410156 0.507812 -26.335938 0.507812 -21.304688 C 0.507812 -14.980469 5.601562 -13.183594 11.535156 -11.355469 C 14.5 -10.425781 17.167969 -8.988281 17.167969 -5.933594 C 17.167969 -3.625 15.101562 -1.886719 12.792969 -1.886719 C 8.121094 -1.886719 8.660156 -6.230469 9.078125 -9.378906 C 9.226562 -10.515625 8.449219 -11.117188 7.550781 -11.144531 C 5.992188 -11.207031 0.300781 -8.238281 0.300781 -6.441406 C 0.300781 -2.847656 4.554688 0.449219 9.558594 0.449219 Z M 9.558594 0.449219 "/></g></g></g><g fill="#c5314a" fill-opacity="1"><g transform="translate(210.113509, 240.213647)"><g><path d="M 0.148438 -26.335938 C 1.589844 -25.949219 1.4375 -24.390625 1.4375 -24.03125 L 1.4375 -3.535156 C 1.4375 -1.828125 1.199219 -0.808594 0.390625 0 L 10.425781 0 C 9.617188 -0.808594 9.378906 -1.828125 9.378906 -3.535156 L 9.378906 -11.683594 C 9.378906 -15.011719 10.636719 -15.941406 12.015625 -15.941406 C 13.332031 -15.941406 13.722656 -14.652344 13.722656 -13.273438 L 13.722656 -3.535156 C 13.722656 -1.828125 13.484375 -0.808594 12.675781 0 L 22.710938 0 C 21.902344 -0.808594 21.664062 -1.828125 21.664062 -3.535156 L 21.664062 -8.660156 L 21.632812 -14.382812 C 21.632812 -17.5 20.882812 -21.421875 16.507812 -21.421875 C 11.445312 -21.421875 10.816406 -17.257812 9.589844 -17.257812 C 9.558594 -17.257812 9.46875 -17.257812 9.378906 -17.257812 L 9.378906 -29.242188 C 9.378906 -29.84375 9.347656 -30.410156 8.480469 -30.410156 C 6.710938 -30.410156 1.199219 -27.714844 0.03125 -27.144531 C -0.03125 -27.117188 -0.300781 -27.054688 -0.300781 -26.757812 C -0.300781 -26.398438 0.0585938 -26.367188 0.148438 -26.335938 Z M 0.148438 -26.335938 "/></g></g></g><g fill="#c5314a" fill-opacity="1"><g transform="translate(233.417031, 240.213647)"><g><path d="M 3.804688 -2.636719 C 5.84375 -0.570312 8.507812 0.449219 11.234375 0.449219 C 14.023438 0.449219 16.867188 -0.660156 19.054688 -2.875 C 23.339844 -7.222656 23.460938 -14.113281 19.296875 -18.308594 C 17.257812 -20.375 14.589844 -21.394531 11.863281 -21.394531 C 9.078125 -21.394531 6.230469 -20.285156 4.046875 -18.097656 C -0.269531 -13.753906 -0.359375 -6.863281 3.804688 -2.636719 Z M 10.097656 -19.804688 C 12.046875 -20.105469 14.261719 -16.148438 15.042969 -10.964844 C 15.820312 -5.691406 14.890625 -1.289062 12.972656 -0.988281 C 11.027344 -0.6875 8.808594 -4.613281 8 -9.828125 C 7.191406 -15.070312 8.121094 -19.503906 10.097656 -19.804688 Z M 10.097656 -19.804688 "/></g></g></g><g fill="#c5314a" fill-opacity="1"><g transform="translate(256.510886, 240.213647)"><g><path d="M 0 -20.972656 L 0 -19.476562 L 0.929688 -19.476562 C 2.335938 -19.476562 2.308594 -18.457031 2.308594 -17.558594 L 2.308594 -7.941406 C 2.308594 -3.835938 3.117188 0.449219 8.867188 0.449219 C 10.308594 0.449219 11.984375 -0.238281 12.136719 -1.316406 C 11.835938 -1.378906 11.59375 -1.347656 11.355469 -1.5 C 9.769531 -2.488281 9.917969 -5.035156 9.917969 -7.371094 L 9.917969 -19.476562 L 12.496094 -19.476562 L 12.496094 -20.972656 L 9.917969 -20.972656 L 9.917969 -26.515625 C 9.917969 -26.9375 9.707031 -27.234375 9.347656 -27.234375 C 8.148438 -27.234375 3.027344 -20.972656 0 -20.972656 Z M 0 -20.972656 "/></g></g></g><g fill="#c5314a" fill-opacity="1"><g transform="translate(269.300871, 240.213647)"><g><path d="M 0.449219 -14.980469 C 0.449219 -9.109375 6.773438 -7.191406 11.625 -7.191406 C 13.902344 -7.191406 15.671875 -7.582031 16.777344 -7.582031 C 17.589844 -7.582031 18.039062 -7.371094 18.039062 -6.652344 C 18.039062 -5.09375 15.878906 -3.894531 13.8125 -3.894531 C 8.328125 -3.894531 5.273438 -7.851562 3.476562 -7.851562 C 2.246094 -7.851562 0.597656 -3.535156 0.597656 -2.246094 C 0.597656 -0.71875 6.5625 0.449219 10.667969 0.449219 C 14.050781 0.449219 19.65625 -1.257812 19.65625 -6.800781 C 19.65625 -12.585938 13.753906 -14.140625 8.449219 -15.070312 C 5.933594 -15.519531 3.925781 -16.121094 3.925781 -17.589844 C 3.925781 -19.085938 5.273438 -19.65625 6.320312 -19.65625 C 10.066406 -19.65625 12.945312 -13.753906 16.929688 -13.753906 C 18.007812 -13.753906 19.714844 -15.820312 19.714844 -17.828125 C 19.714844 -19.566406 15.371094 -21.421875 10.097656 -21.421875 C 5.574219 -21.421875 0.449219 -19.984375 0.449219 -14.980469 Z M 0.449219 -14.980469 "/></g></g></g></svg>